<?xml version="1.0" encoding="UTF-8"?>
<svg width="1024" height="1792" viewBox="0 0 1024 1792" xmlns="http://www.w3.org/2000/svg">
  <!-- Background -->
  <rect width="1024" height="1792" fill="#f5e6d3" rx="64"/>

  <!-- Inner card area -->
  <rect x="64" y="64" width="896" height="1664" fill="#7b2cbf" rx="48"/>

  <!-- Decorative border (pixelated) -->
  <rect x="96" y="96" width="32" height="32" fill="#ffd700"/>
  <rect x="96" y="1664" width="32" height="32" fill="#ffd700"/>
  <rect x="896" y="96" width="32" height="32" fill="#ffd700"/>
  <rect x="896" y="1664" width="32" height="32" fill="#ffd700"/>

  <!-- Title banner -->
  <rect x="128" y="160" width="768" height="160" fill="#ffffff" rx="16"/>
  <text x="512" y="260"
    font-family="system-ui, -apple-system, sans-serif"
    font-size="72"
    font-weight="800"
    fill="#1a1a1a"
    text-anchor="middle"
    letter-spacing="-2">THE DILEMMA</text>

  <!-- Icon area (pixelated) -->
  <g transform="translate(512, 996)">
    
  <!-- Balance scales -->
  <rect x="-8" y="-120" width="16" height="200" fill="#7b2cbf"/>
  <rect x="-140" y="-120" width="280" height="16" fill="#7b2cbf"/>
  <!-- Left scale -->
  <rect x="-140" y="-104" width="16" height="80" fill="#7b2cbf"/>
  <rect x="-180" y="-24" width="96" height="16" fill="#ffd700" rx="8"/>
  <!-- Right scale -->
  <rect x="124" y="-104" width="16" height="80" fill="#7b2cbf"/>
  <rect x="84" y="-24" width="96" height="16" fill="#ffd700" rx="8"/>
  <!-- Base -->
  <rect x="-64" y="80" width="128" height="32" fill="#7b2cbf" rx="16"/>

  </g>

  <!-- Bottom accent -->
  <rect x="196" y="1536" width="632" height="96" fill="#ffd700" rx="48"/>
</svg>