<?xml version="1.0" encoding="UTF-8"?>
<svg width="1024" height="1792" viewBox="0 0 1024 1792" xmlns="http://www.w3.org/2000/svg">
  <!-- Background -->
  <rect width="1024" height="1792" fill="#f5e6d3" rx="64"/>

  <!-- Inner card area -->
  <rect x="64" y="64" width="896" height="1664" fill="#74c69d" rx="48"/>

  <!-- Decorative border (pixelated) -->
  <rect x="96" y="96" width="32" height="32" fill="#ffd700"/>
  <rect x="96" y="1664" width="32" height="32" fill="#ffd700"/>
  <rect x="896" y="96" width="32" height="32" fill="#ffd700"/>
  <rect x="896" y="1664" width="32" height="32" fill="#ffd700"/>

  <!-- Title banner -->
  <rect x="128" y="160" width="768" height="160" fill="#ffffff" rx="16"/>
  <text x="512" y="260"
    font-family="system-ui, -apple-system, sans-serif"
    font-size="72"
    font-weight="800"
    fill="#1a1a1a"
    text-anchor="middle"
    letter-spacing="-2">THE OPTIMIST</text>

  <!-- Icon area (pixelated) -->
  <g transform="translate(512, 996)">
    
  <!-- Sun with watermelon colors -->
  <circle cx="0" cy="0" r="100" fill="#ffd700"/>
  <circle cx="0" cy="0" r="64" fill="#e63946"/>
  <!-- Rays -->
  <rect x="-8" y="-160" width="16" height="48" fill="#ffd700"/>
  <rect x="-8" y="112" width="16" height="48" fill="#ffd700"/>
  <rect x="-160" y="-8" width="48" height="16" fill="#ffd700"/>
  <rect x="112" y="-8" width="48" height="16" fill="#ffd700"/>
  <rect x="-112" y="-112" width="32" height="32" fill="#ffd700"/>
  <rect x="80" y="-112" width="32" height="32" fill="#ffd700"/>
  <rect x="-112" y="80" width="32" height="32" fill="#ffd700"/>
  <rect x="80" y="80" width="32" height="32" fill="#ffd700"/>

  </g>

  <!-- Bottom accent -->
  <rect x="196" y="1536" width="632" height="96" fill="#ffd700" rx="48"/>
</svg>