<?xml version="1.0" encoding="UTF-8"?>
<svg width="1024" height="1792" viewBox="0 0 1024 1792" xmlns="http://www.w3.org/2000/svg">
  <!-- Background -->
  <rect width="1024" height="1792" fill="#f5e6d3" rx="64"/>

  <!-- Inner card area -->
  <rect x="64" y="64" width="896" height="1664" fill="#1a4d2e" rx="48"/>

  <!-- Decorative border (pixelated) -->
  <rect x="96" y="96" width="32" height="32" fill="#74c69d"/>
  <rect x="96" y="1664" width="32" height="32" fill="#74c69d"/>
  <rect x="896" y="96" width="32" height="32" fill="#74c69d"/>
  <rect x="896" y="1664" width="32" height="32" fill="#74c69d"/>

  <!-- Title banner -->
  <rect x="128" y="160" width="768" height="160" fill="#ffffff" rx="16"/>
  <text x="512" y="260"
    font-family="system-ui, -apple-system, sans-serif"
    font-size="72"
    font-weight="800"
    fill="#1a1a1a"
    text-anchor="middle"
    letter-spacing="-2">THE SAGE</text>

  <!-- Icon area (pixelated) -->
  <g transform="translate(512, 996)">
    
  <!-- Open book -->
  <rect x="-120" y="-80" width="240" height="160" fill="#1a4d2e" rx="8"/>
  <rect x="-112" y="-64" width="104" height="128" fill="#f5e6d3"/>
  <rect x="8" y="-64" width="104" height="128" fill="#f5e6d3"/>
  <line x1="0" y1="-80" x2="0" y2="80" stroke="#1a4d2e" stroke-width="8"/>
  <!-- Text lines -->
  <rect x="-96" y="-40" width="72" height="8" fill="#1a4d2e" rx="4"/>
  <rect x="-96" y="-16" width="72" height="8" fill="#1a4d2e" rx="4"/>
  <rect x="-96" y="8" width="72" height="8" fill="#1a4d2e" rx="4"/>
  <rect x="24" y="-40" width="72" height="8" fill="#1a4d2e" rx="4"/>
  <rect x="24" y="-16" width="72" height="8" fill="#1a4d2e" rx="4"/>
  <rect x="24" y="8" width="72" height="8" fill="#1a4d2e" rx="4"/>

  </g>

  <!-- Bottom accent -->
  <rect x="196" y="1536" width="632" height="96" fill="#74c69d" rx="48"/>
</svg>